<svg width="36" height="36" viewBox="0 0 36 36" fill="none" xmlns="http://www.w3.org/2000/svg">
<path d="M3.72259 20.531L7.31247 13.3513V20.531H8.43747V13.3513L12.0273 20.531H13.2851L8.85372 11.6683C9.82383 11.5022 10.7428 11.1153 11.5397 10.5376C12.586 9.77784 13.7588 9.20955 15.0035 8.85915C14.6387 8.16007 14.5333 7.35437 14.706 6.58496C13.0798 7.00216 11.5499 7.73052 10.2009 8.72977C9.50533 9.22856 8.6745 9.50397 7.81871 9.51944C6.96293 9.53492 6.12268 9.28972 5.40953 8.8164L5.12378 8.62571C4.87539 8.46027 4.57145 8.40027 4.27882 8.45892C3.98619 8.51757 3.72885 8.69007 3.56341 8.93846C3.39796 9.18685 3.33797 9.49079 3.39662 9.78342C3.45527 10.076 3.62776 10.3334 3.87616 10.4988L4.16247 10.6873C4.97812 11.2292 5.90681 11.5776 6.87766 11.706L2.46484 20.531H3.72259Z" fill="#B68C5A"/>
<path d="M13.4713 21.6562H2.27869C2.41797 23.0439 3.06775 24.3302 4.10193 25.2658C5.13612 26.2014 6.48098 26.7195 7.87556 26.7195C9.27014 26.7195 10.615 26.2014 11.6492 25.2658C12.6834 24.3302 13.3332 23.0439 13.4724 21.6562H13.4713Z" fill="#B68C5A"/>
<path d="M22.5287 21.6562C22.668 23.0439 23.3177 24.3302 24.3519 25.2658C25.3861 26.2014 26.731 26.7195 28.1256 26.7195C29.5201 26.7195 30.865 26.2014 31.8992 25.2658C32.9334 24.3302 33.5832 23.0439 33.7224 21.6562H22.5287Z" fill="#B68C5A"/>
<path d="M16.3125 1.6875H16.875V4.13437C17.602 3.87186 18.398 3.87186 19.125 4.13437V1.6875H19.6875C19.8367 1.6875 19.9798 1.62824 20.0852 1.52275C20.1907 1.41726 20.25 1.27418 20.25 1.125C20.25 0.975816 20.1907 0.832742 20.0852 0.727252C19.9798 0.621763 19.8367 0.5625 19.6875 0.5625H16.3125C16.1633 0.5625 16.0202 0.621763 15.9148 0.727252C15.8093 0.832742 15.75 0.975816 15.75 1.125C15.75 1.27418 15.8093 1.41726 15.9148 1.52275C16.0202 1.62824 16.1633 1.6875 16.3125 1.6875Z" fill="#B68C5A"/>
<path d="M18 9.5625C19.2426 9.5625 20.25 8.55514 20.25 7.3125C20.25 6.06986 19.2426 5.0625 18 5.0625C16.7574 5.0625 15.75 6.06986 15.75 7.3125C15.75 8.55514 16.7574 9.5625 18 9.5625Z" fill="#B68C5A"/>
<path d="M23.625 33.1875H12.375C11.9274 33.1875 11.4982 33.3653 11.1818 33.6818C10.8653 33.9982 10.6875 34.4274 10.6875 34.875C10.6875 35.0242 10.7468 35.1673 10.8523 35.2727C10.9577 35.3782 11.1008 35.4375 11.25 35.4375H24.75C24.8992 35.4375 25.0423 35.3782 25.1477 35.2727C25.2532 35.1673 25.3125 35.0242 25.3125 34.875C25.3125 34.4274 25.1347 33.9982 24.8182 33.6818C24.5018 33.3653 24.0726 33.1875 23.625 33.1875Z" fill="#B68C5A"/>
<path d="M12.9375 31.5V32.0625H23.0625V31.5C23.0625 31.0524 22.8847 30.6232 22.5682 30.3068C22.2518 29.9903 21.8226 29.8125 21.375 29.8125H14.625C14.1774 29.8125 13.7482 29.9903 13.4318 30.3068C13.1153 30.6232 12.9375 31.0524 12.9375 31.5Z" fill="#B68C5A"/>
<path d="M24.4604 10.5379C25.2572 11.1156 26.1762 11.5024 27.1463 11.6685L22.7149 20.5312H23.9727L27.5625 13.3515V20.5312H28.6875V13.3515L32.2774 20.5312H33.5352L29.1235 11.7079C30.0941 11.5789 31.0224 11.2299 31.8375 10.6875L32.1227 10.4974C32.3711 10.3319 32.5436 10.0746 32.6023 9.78196C32.6609 9.48933 32.6009 9.18539 32.4355 8.937C32.27 8.6886 32.0127 8.51611 31.7201 8.45746C31.4274 8.3988 31.1235 8.4588 30.8751 8.62425L30.5894 8.81493C29.8762 9.28825 29.036 9.53345 28.1802 9.51798C27.3244 9.50251 26.4936 9.22709 25.798 8.72831C24.449 7.72905 22.9191 7.00069 21.2929 6.5835C21.4656 7.3529 21.3602 8.15861 20.9954 8.85768C22.2406 9.20847 23.4138 9.77735 24.4604 10.5379Z" fill="#B68C5A"/>
<path d="M18 10.6876C17.6165 10.6866 17.236 10.62 16.875 10.4907V28.6876H19.125V10.4907C18.764 10.62 18.3835 10.6866 18 10.6876Z" fill="#B68C5A"/>
</svg>
