<svg width="147" height="36" viewBox="0 0 147 36" fill="none" xmlns="http://www.w3.org/2000/svg">
<path d="M3.72259 20.531L7.31247 13.3513V20.531H8.43747V13.3513L12.0273 20.531H13.2851L8.85372 11.6683C9.82383 11.5022 10.7428 11.1153 11.5397 10.5376C12.586 9.77784 13.7588 9.20955 15.0035 8.85915C14.6387 8.16007 14.5333 7.35437 14.706 6.58496C13.0798 7.00216 11.5499 7.73052 10.2009 8.72977C9.50533 9.22856 8.6745 9.50397 7.81871 9.51944C6.96293 9.53492 6.12268 9.28972 5.40953 8.8164L5.12378 8.62571C4.87539 8.46027 4.57145 8.40027 4.27882 8.45892C3.98619 8.51757 3.72885 8.69007 3.56341 8.93846C3.39796 9.18685 3.33797 9.49079 3.39662 9.78342C3.45527 10.076 3.62776 10.3334 3.87616 10.4988L4.16247 10.6873C4.97812 11.2292 5.90681 11.5776 6.87766 11.706L2.46484 20.531H3.72259Z" fill="white"/>
<path d="M13.4714 21.6562H2.27881C2.41809 23.0439 3.06787 24.3303 4.10206 25.2658C5.13625 26.2014 6.4811 26.7195 7.87568 26.7195C9.27026 26.7195 10.6151 26.2014 11.6493 25.2658C12.6835 24.3303 13.3333 23.0439 13.4726 21.6562H13.4714Z" fill="white"/>
<path d="M22.5288 21.6562C22.6681 23.0439 23.3179 24.3303 24.3521 25.2658C25.3862 26.2014 26.7311 26.7195 28.1257 26.7195C29.5203 26.7195 30.8651 26.2014 31.8993 25.2658C32.9335 24.3303 33.5833 23.0439 33.7226 21.6562H22.5288Z" fill="white"/>
<path d="M16.3125 1.6875H16.875V4.13437C17.602 3.87186 18.398 3.87186 19.125 4.13437V1.6875H19.6875C19.8367 1.6875 19.9798 1.62824 20.0852 1.52275C20.1907 1.41726 20.25 1.27418 20.25 1.125C20.25 0.975816 20.1907 0.832742 20.0852 0.727252C19.9798 0.621763 19.8367 0.5625 19.6875 0.5625H16.3125C16.1633 0.5625 16.0202 0.621763 15.9148 0.727252C15.8093 0.832742 15.75 0.975816 15.75 1.125C15.75 1.27418 15.8093 1.41726 15.9148 1.52275C16.0202 1.62824 16.1633 1.6875 16.3125 1.6875Z" fill="white"/>
<path d="M18 9.5625C19.2426 9.5625 20.25 8.55514 20.25 7.3125C20.25 6.06986 19.2426 5.0625 18 5.0625C16.7574 5.0625 15.75 6.06986 15.75 7.3125C15.75 8.55514 16.7574 9.5625 18 9.5625Z" fill="white"/>
<path d="M23.625 33.1875H12.375C11.9274 33.1875 11.4982 33.3653 11.1818 33.6818C10.8653 33.9982 10.6875 34.4274 10.6875 34.875C10.6875 35.0242 10.7468 35.1673 10.8523 35.2727C10.9577 35.3782 11.1008 35.4375 11.25 35.4375H24.75C24.8992 35.4375 25.0423 35.3782 25.1477 35.2727C25.2532 35.1673 25.3125 35.0242 25.3125 34.875C25.3125 34.4274 25.1347 33.9982 24.8182 33.6818C24.5018 33.3653 24.0726 33.1875 23.625 33.1875Z" fill="white"/>
<path d="M12.9375 31.5V32.0625H23.0625V31.5C23.0625 31.0524 22.8847 30.6232 22.5682 30.3068C22.2518 29.9903 21.8226 29.8125 21.375 29.8125H14.625C14.1774 29.8125 13.7482 29.9903 13.4318 30.3068C13.1153 30.6232 12.9375 31.0524 12.9375 31.5Z" fill="white"/>
<path d="M24.4604 10.5379C25.2572 11.1156 26.1762 11.5024 27.1463 11.6685L22.7149 20.5312H23.9727L27.5625 13.3515V20.5312H28.6875V13.3515L32.2774 20.5312H33.5352L29.1235 11.7079C30.0941 11.5789 31.0224 11.2299 31.8375 10.6875L32.1227 10.4974C32.3711 10.3319 32.5436 10.0746 32.6023 9.78196C32.6609 9.48933 32.6009 9.18539 32.4355 8.937C32.27 8.6886 32.0127 8.51611 31.7201 8.45746C31.4274 8.3988 31.1235 8.4588 30.8751 8.62425L30.5894 8.81493C29.8762 9.28825 29.036 9.53345 28.1802 9.51798C27.3244 9.50251 26.4936 9.22709 25.798 8.72831C24.449 7.72905 22.9191 7.00069 21.2929 6.5835C21.4656 7.3529 21.3602 8.15861 20.9954 8.85768C22.2406 9.20847 23.4138 9.77735 24.4604 10.5379Z" fill="white"/>
<path d="M18 10.6876C17.6165 10.6866 17.236 10.62 16.875 10.4907V28.6876H19.125V10.4907C18.764 10.62 18.3835 10.6866 18 10.6876Z" fill="white"/>
<path d="M58.112 30.5L50.084 20.564L57.284 12.356H62.432L53.468 22.328V18.98L63.512 30.5H58.112ZM46.412 30.5V4.58H50.732V30.5H46.412ZM71.2166 30.932C69.7286 30.932 68.4926 30.68 67.5086 30.176C66.5246 29.672 65.7926 29 65.3126 28.16C64.8326 27.32 64.5926 26.408 64.5926 25.424C64.5926 24.272 64.8806 23.276 65.4566 22.436C66.0566 21.596 66.9326 20.948 68.0846 20.492C69.2366 20.012 70.6526 19.772 72.3326 19.772H76.9046C76.9046 18.812 76.7726 18.02 76.5086 17.396C76.2446 16.748 75.8366 16.268 75.2846 15.956C74.7326 15.644 74.0246 15.488 73.1606 15.488C72.1766 15.488 71.3366 15.716 70.6406 16.172C69.9446 16.604 69.5126 17.276 69.3446 18.188H65.0966C65.2406 16.892 65.6726 15.788 66.3926 14.876C67.1126 13.94 68.0606 13.22 69.2366 12.716C70.4366 12.188 71.7446 11.924 73.1606 11.924C74.8646 11.924 76.3166 12.224 77.5166 12.824C78.7166 13.4 79.6286 14.24 80.2526 15.344C80.9006 16.424 81.2246 17.732 81.2246 19.268V30.5H77.5526L77.1206 27.584C76.8806 28.064 76.5686 28.508 76.1846 28.916C75.8246 29.324 75.4046 29.684 74.9246 29.996C74.4446 30.284 73.8926 30.512 73.2686 30.68C72.6686 30.848 71.9846 30.932 71.2166 30.932ZM72.1886 27.512C72.8846 27.512 73.4966 27.392 74.0246 27.152C74.5766 26.888 75.0446 26.528 75.4286 26.072C75.8366 25.592 76.1486 25.064 76.3646 24.488C76.5806 23.912 76.7246 23.3 76.7966 22.652V22.58H72.8006C71.9606 22.58 71.2646 22.688 70.7126 22.904C70.1606 23.096 69.7646 23.384 69.5246 23.768C69.2846 24.152 69.1646 24.596 69.1646 25.1C69.1646 25.604 69.2846 26.036 69.5246 26.396C69.7646 26.756 70.1126 27.032 70.5686 27.224C71.0246 27.416 71.5646 27.512 72.1886 27.512ZM85.1204 30.5V12.356H88.9364L89.2604 15.38C89.8124 14.324 90.6044 13.484 91.6364 12.86C92.6684 12.236 93.8924 11.924 95.3084 11.924C96.7724 11.924 98.0204 12.236 99.0524 12.86C100.084 13.46 100.876 14.348 101.428 15.524C102.004 16.7 102.292 18.164 102.292 19.916V30.5H97.9724V20.312C97.9724 18.8 97.6364 17.636 96.9644 16.82C96.2924 16.004 95.2964 15.596 93.9764 15.596C93.1124 15.596 92.3324 15.8 91.6364 16.208C90.9644 16.616 90.4244 17.216 90.0164 18.008C89.6324 18.776 89.4404 19.712 89.4404 20.816V30.5H85.1204ZM112.859 30.932C111.395 30.932 110.135 30.644 109.079 30.068C108.047 29.468 107.255 28.58 106.703 27.404C106.151 26.204 105.875 24.728 105.875 22.976V12.356H110.195V22.544C110.195 24.104 110.519 25.292 111.167 26.108C111.839 26.9 112.847 27.296 114.191 27.296C115.055 27.296 115.823 27.092 116.495 26.684C117.191 26.276 117.731 25.688 118.115 24.92C118.523 24.128 118.727 23.168 118.727 22.04V12.356H123.047V30.5H119.231L118.907 27.476C118.355 28.532 117.551 29.372 116.495 29.996C115.463 30.62 114.251 30.932 112.859 30.932ZM127.134 30.5V12.356H130.95L131.274 15.38C131.826 14.324 132.618 13.484 133.65 12.86C134.682 12.236 135.906 11.924 137.322 11.924C138.786 11.924 140.034 12.236 141.066 12.86C142.098 13.46 142.89 14.348 143.442 15.524C144.018 16.7 144.306 18.164 144.306 19.916V30.5H139.986V20.312C139.986 18.8 139.65 17.636 138.978 16.82C138.306 16.004 137.31 15.596 135.99 15.596C135.126 15.596 134.346 15.8 133.65 16.208C132.978 16.616 132.438 17.216 132.03 18.008C131.646 18.776 131.454 19.712 131.454 20.816V30.5H127.134Z" fill="white"/>
</svg>
